<svg xmlns="http://www.w3.org/2000/svg" viewBox="0 0 205.46 114.41"><defs><style>.cls-1{fill:#231f20;}</style></defs><g id="Layer_2" data-name="Layer 2"><g id="airport"><g id="airport-2" data-name="airport"><path class="cls-1" d="M43.7,5c20.66.9,41.34,1.29,62,1.93s41.5,1.54,62.18,3.47c11.53,1.07,23,2.47,34.45,4.34l-.6-4.57c-.76.42-1.55.81-2.34,1.17L198,12l-.67.29-.43.18c-.65.28.29-.11-.13.06-2.69,1.12-5.4,2.18-8.12,3.21-7.21,2.73-14.47,5.29-21.75,7.81-14.41,5-28.89,9.8-43.4,14.51q-4.74,1.54-9.49,3.07l1.92.25q-8.89-5.28-17.83-10.52Q80.52,20.49,62.8,10.35C56.88,7,51,3.65,45,.43c-2.83-1.52-5.32,2.7-2.52,4.31L56.94,13.1l29.47,17,23.74,13.67,2.62,1.52c.19.11.39.21.57.33l.09,0c-.56-.38.31.33.46.46l1.39,1.24c7.36,6.49,14.86,12.83,22.35,19.19s14.88,12.62,22.2,19.07c7.72,6.81,15.55,13.65,22.13,21.6q2.4,2.9,4.5,6c1.06,1.59,4.2,1.71,4.57-.59,4.11-26,6.52-52.3,10.44-78.36,1.07-7.06,2.24-14.11,3.64-21.12a2.57,2.57,0,0,0-1.75-3.08,2.52,2.52,0,0,0-3.07,1.75c-5.16,25.92-7.71,52.3-11.11,78.49-.91,7-1.87,14-3,21l4.56-.6c-6-8.89-13.69-16.34-21.62-23.48-7.21-6.49-14.56-12.81-21.94-19.09-7.67-6.52-15.37-13-23-19.6-1.76-1.53-3.52-3.06-5.27-4.61a29.19,29.19,0,0,0-3-2.63c-.5-.32-1-.59-1.55-.89L92.88,28.05,62.79,10.7,51.14,4c-2-1.13-3.88-2.41-5.91-3.41L45,.43,42.43,4.74c14,7.53,27.76,15.56,41.51,23.57Q98.51,36.8,113,45.4a3.25,3.25,0,0,0,2.68.41c.94-.27,1.86-.59,2.78-.89l12.61-4.1q19.67-6.43,39.23-13.19c6.25-2.18,12.49-4.39,18.69-6.72,4.5-1.7,9-3.4,13.39-5.46.63-.3,1.27-.62,1.89-1,1.75-1,1.57-4.21-.6-4.57a598,598,0,0,0-62.21-6.48c-20.91-1.2-41.85-1.69-62.79-2.27C67,.85,55.35.51,43.7,0c-3.22-.14-3.21,4.86,0,5Z"/><path class="cls-1" d="M112,44.74a229.66,229.66,0,0,1-1,29.67,2.52,2.52,0,0,0,3.77,2.16A192.71,192.71,0,0,1,134.33,64c2.81-1.57.29-5.89-2.52-4.32a194,194,0,0,0-19.66,12.53l3.76,2.16a229.66,229.66,0,0,0,1-29.67c-.1-3.21-5.1-3.23-5,0Z"/><path class="cls-1" d="M94.39,46.92,46.13,62.45,32.41,66.86c-3,1-1.75,5.81,1.33,4.82L82,56.16l13.72-4.42c3-1,1.75-5.81-1.33-4.82Z"/><path class="cls-1" d="M90.29,73.65A443.12,443.12,0,0,0,29.55,93.33q-8.41,3.42-16.69,7.17a2.52,2.52,0,0,0-.9,3.42,2.57,2.57,0,0,0,3.42.9,436.15,436.15,0,0,1,58.86-21.7q8.64-2.5,17.38-4.65c3.12-.77,1.8-5.6-1.33-4.82Z"/><path class="cls-1" d="M2.41,109.79c3.22,0,3.23-5,0-5s-3.22,5,0,5Z"/><path class="cls-1" d="M18.56,76.42c3.22,0,3.23-5,0-5s-3.22,5,0,5Z"/></g></g></g></svg>