<svg xmlns="http://www.w3.org/2000/svg" viewBox="0 0 128.62 139.7"><defs><style>.cls-1{fill:#231f20;}.cls-2{fill:none;stroke:#231f20;stroke-miterlimit:10;stroke-width:4px;}</style></defs><g id="Layer_2" data-name="Layer 2"><g id="cafe"><g id="cafe-2" data-name="cafe"><path class="cls-1" d="M127.56,50a15.16,15.16,0,0,0-6.6-5.61c-.82-.41-1.66-.77-2.49-1.09-.6-.23-1.2-.44-1.78-.63l-.57-.18c-.12,1.7-.29,3.39-.52,5a23.24,23.24,0,0,1,2.36,1l.43.21c.62.31,1.29.67,1.94,1.08,2.28,1.45,4.28,3.57,2.7,6.32a12.67,12.67,0,0,1-6,4.82,32.09,32.09,0,0,1-3.17,1.22l-.4.12c-1.26.41-2.53.77-3.82,1.09-2.23,2.73-5.29,5-8.83,5.34a10.3,10.3,0,0,1-1.36,0h0a2.54,2.54,0,0,0-1-.05,23.09,23.09,0,0,1-5.54-1.28,10.61,10.61,0,0,1-1.48-.61c-1.17.18-2.35.35-3.53.5l-.28,0L85,67.68c-2.09.25-15.65,1.71-28.73,1.77A269.56,269.56,0,0,1,29.3,68q-6.89-.61-13.71-1.64c-3.07-.46-7.6-.68-9.66-3.4-1.77-2.33-.81-5.84.85-8C9,52.14,12.69,50.73,16,49.62c1.11-.37,2.23-.72,3.35-1.06.78-.24,1.55-.48,2.33-.69s1.64-.48,2.47-.69a9.45,9.45,0,0,1,0-4.36,9.87,9.87,0,0,0,1.79.59A51,51,0,0,0,35,44.61q3.27-.66,6.57-1.2c5.06-.83,10.18-1.43,15.31-1.8H57l.81-.06c.89-.07,1.77-.12,2.66-.16s1.77-.09,2.66-.12c.21-.65.43-1.29.68-1.93.14-.39.29-.77.41-1.16,0-.16.1-.31.14-.47a.18.18,0,0,0,0-.06h0s0,.09,0,.14a.81.81,0,0,0,0-.11c0,.06.08.1,0-.06l.08,0,.41-.1a6.67,6.67,0,0,1,1.26,0,2.72,2.72,0,0,1,2.16,1.24,2.58,2.58,0,0,1,.21,2.19,1.15,1.15,0,0,1-.12.25c.87,0,1.74,0,2.61,0s1.69,0,2.53,0q3.77.07,7.51.34c.85.05,1.7.12,2.55.19h0c.83.07,1.65.14,2.48.23q.36-1.56.78-3.09c.16-.59.33-1.18.52-1.76l-2.55-.24q-1.27-.12-2.55-.21c-3.21-.23-6.44-.38-9.66-.44l-3.24,0q-3.59,0-7.17.15a5.68,5.68,0,0,0-.59,0c-.74,0-1.48.06-2.22.11h-.28c-1.12.06-2.25.14-3.37.23-1.26.43-2.52.82-3.8,1.16l-.86.23A54.15,54.15,0,0,1,34.73,39.6c-2.42.47-4.82,1-7.21,1.58-1,.24-2.08.5-3.11.77l-1.23.33-1.61.44-1.23.35-1.36.4-1.16.34-2.5.77A31.47,31.47,0,0,0,6,48.93,14.1,14.1,0,0,0,0,59.44a10,10,0,0,0,6,9.69c.32.14.64.28,1,.4a27.39,27.39,0,0,0,5.1,1.37c2.47.45,5,.68,7.41,1q10.16,1.33,20.4,1.79c1.66.08,3.33.14,5,.18.67,0,5.55,0,11.74,0,8.88-.08,20.47-.31,26.35-1,1.52-.16,3-.34,4.57-.53,1-.12,2-.25,3-.39.65-.08,1.29-.17,1.94-.27h0c1.23-.17,2.46-.35,3.69-.56.23,0,.45-.06.68-.11h0q2.1-.33,4.17-.72,2.91-.54,5.79-1.17c1.82-.41,3.64-.84,5.44-1.32h.06a42.22,42.22,0,0,0,6-2,25.11,25.11,0,0,0,4.8-2.69c.45-.33.89-.67,1.31-1C127.93,59.12,130,54.26,127.56,50Z"/><path class="cls-1" d="M6.93,68.29a265.36,265.36,0,0,1,0,43.4,2.5,2.5,0,0,0,5,0,265.36,265.36,0,0,0,0-43.4,2.57,2.57,0,0,0-2.5-2.5,2.51,2.51,0,0,0-2.5,2.5Z"/><path class="cls-1" d="M39.94,72.72q-.45,30.15.24,60.29c.07,3.21,5.07,3.22,5,0q-.69-30.13-.24-60.29c.05-3.22-4.95-3.22-5,0Z"/><path class="cls-1" d="M92.81,81.46q-1.62-.12-3.24-.09c-.59,0-1.18,0-1.77.07,0-3-.08-6-.21-9.07,0-.14,0-.28,0-.42a2.35,2.35,0,0,1,.32-1.35,2.59,2.59,0,0,1,4.65,1.11h0a1.94,1.94,0,0,1,0,.24l0,.7C92.72,75.58,92.79,78.53,92.81,81.46Z"/><path class="cls-1" d="M118.36,64.08q.15,27.24-2.22,54.42a2.5,2.5,0,0,0,5,0q2.37-27.14,2.22-54.42c0-3.22-5-3.23-5,0Z"/><path class="cls-1" d="M43.11,28.67c0,.83-.13,1.66-.22,2.49-.11,1-.25,2-.4,3-1.39.08-2.78.16-4.16.28l-.95.09c.19-1.11.36-2.24.5-3.39.11-.83.19-1.67.25-2.51.4-5.22,0-10.53-2.48-15.14S28.5,5.19,23.28,5,14,8.5,12.44,13.33c-1.64,5.13-.42,10,1.07,15a61.4,61.4,0,0,0,2.91,8c.56,1.23,1.16,2.44,1.84,3.62.29.52.68,1.14,1,1.67s.49.72.68,1a3.17,3.17,0,0,1,.36.54,2.43,2.43,0,0,1-.36,3,2.41,2.41,0,0,1-1,.58,2.36,2.36,0,0,1-2.58-.58c-.39-.48-.76-1-1.12-1.48-3.74-5.25-6-11.84-7.46-18S6,13.89,9.32,8.09A15.55,15.55,0,0,1,26.14.32c6.87,1.4,12.36,6.76,15,13.11A33.73,33.73,0,0,1,43.11,28.67Z"/><path class="cls-1" d="M118.09,29.6a16.5,16.5,0,0,0-3-7c-4.69-6-14.43-5.78-20.53-1.27-5,3.71-8,9.47-9.79,15.5-.4,1.32-.74,2.65-1,4-.07.3-.13.59-.19.89h0a39.34,39.34,0,0,0-1,10.41,23.17,23.17,0,0,0,.26,2.48c.12.74.26,1.57.45,2.45.74,3.44,2.1,7.64,4.57,10.24a7.79,7.79,0,0,0,2.83,2,30.8,30.8,0,0,0,5.58,1.65l.63.1h0a16.17,16.17,0,0,0,4.33.13,12.64,12.64,0,0,0,4.66-1.45c.33-.18.65-.37,1-.57a20.89,20.89,0,0,0,6.59-6.86,27,27,0,0,0,2.33-4.77,40.85,40.85,0,0,0,2.15-9c.24-1.72.4-3.46.51-5.19,0-.52.07-1,.1-1.56A47.63,47.63,0,0,0,118.09,29.6Zm-2.68,19.27a31.67,31.67,0,0,1-4.63,13c-.34.51-.72,1-1.12,1.5-2.23,2.73-5.29,5-8.83,5.34a10.3,10.3,0,0,1-1.36,0h0a2.54,2.54,0,0,0-1-.05,23.09,23.09,0,0,1-5.54-1.28,10.61,10.61,0,0,1-1.48-.61,6.48,6.48,0,0,1-2.57-2.27c-2.12-3.09-3-6.93-3.57-10.59a33,33,0,0,1,.8-12q.36-1.56.78-3.09c.16-.59.33-1.18.52-1.76a31.43,31.43,0,0,1,4.85-9.89c4.24-5.55,12.43-9,18.8-5,3.66,2.3,4.75,7,5.08,11.07a61.53,61.53,0,0,1,0,9.21c-.12,1.7-.29,3.39-.52,5C115.54,48,115.48,48.44,115.41,48.87Z"/><path class="cls-1" d="M116.27,20.14c-6.62-7-18.28-5.25-24.91.69-4.26,3.81-6.93,9.11-8.67,14.48-.15.45-.29.9-.42,1.36-.48,1.6-.9,3.23-1.24,4.88A40.12,40.12,0,0,0,80.41,55c0,.11,0,.21,0,.32a1.55,1.55,0,0,0,0,.21,29.7,29.7,0,0,0,3.78,11.19c.21.33.43.67.68,1a11.82,11.82,0,0,0,2.94,2.92,7.77,7.77,0,0,0,.78.48,19,19,0,0,0,1.93.9c.65.25,1.32.48,2,.67a27.54,27.54,0,0,0,3.18.73l1.09.17a17.45,17.45,0,0,0,15-5.25l.46-.48h0A26.54,26.54,0,0,0,117.05,61a34.69,34.69,0,0,0,2.38-6.7c.36-1.46.65-2.94.9-4.44.28-1.78.49-3.59.63-5.39.22-2.62.29-5.24.28-7.82C121.2,30.89,120.34,24.47,116.27,20.14Zm-.86,28.73a31.67,31.67,0,0,1-4.63,13c-.34.51-.72,1-1.12,1.5-2.23,2.73-5.29,5-8.83,5.34a10.3,10.3,0,0,1-1.36,0h0a8.88,8.88,0,0,1-1-.05,23.09,23.09,0,0,1-5.54-1.28,10.61,10.61,0,0,1-1.48-.61,6.48,6.48,0,0,1-2.57-2.27c-2.12-3.09-3-6.93-3.57-10.59a33,33,0,0,1,.8-12q.36-1.56.78-3.09c.16-.59.33-1.18.52-1.76a31.43,31.43,0,0,1,4.85-9.89c4.24-5.55,12.43-9,18.8-5,3.66,2.3,4.75,7,5.08,11.07a61.53,61.53,0,0,1,0,9.21c-.12,1.7-.29,3.39-.52,5C115.54,48,115.48,48.44,115.41,48.87Z"/><path class="cls-2" d="M101.72,95a19.73,19.73,0,0,1-5,2.11,31.84,31.84,0,0,1-4.38,1.39,51.53,51.53,0,0,1-5.07,1l-.48.07c-1.25.17-10.7,1.11-11.9,1.16-2.39.09-5.15.29-7.15.29a11.26,11.26,0,0,1-6-2,5.27,5.27,0,0,1-2.4-4.22c.12-1.92,1.55-3.38,2.84-4.66A20.09,20.09,0,0,1,67.81,86a43.72,43.72,0,0,1,9-2.79,72.66,72.66,0,0,1,11-1.73c.59,0,1.18-.06,1.77-.07q1.62,0,3.24.09c.42,0,.85.06,1.27.11a48.12,48.12,0,0,1,4.93.77c.74.15,1.47.31,2.2.49,1.83.44,4,.9,5.05,2.61a4.75,4.75,0,0,1,.46,4.51C105.66,92.12,102.81,94.22,101.72,95Z"/><path class="cls-1" d="M67.33,100.46l-1.71,23.66a2.55,2.55,0,0,1-2.5,2.5,2.51,2.51,0,0,1-2.5-2.5l1.74-24C62.38,99.81,67.34,100.34,67.33,100.46Z"/><path class="cls-1" d="M104.15,129.41a2.52,2.52,0,0,1-2.5,2.5,2.57,2.57,0,0,1-2.5-2.5A197.11,197.11,0,0,1,99,96c.07-.89,5.26-3,5.23-2.66A197.43,197.43,0,0,0,104.15,129.41Z"/><path class="cls-1" d="M85.59,137.29c.2,3.22-4.8,3.19-5,0q-1.09-18-2.18-36c0-.29,5-.49,5,0Q84.51,119.27,85.59,137.29Z"/><path class="cls-1" d="M101.26,71.17a2.46,2.46,0,0,1-.06.66c-.13.61-.25,1.21-.38,1.82-.6,2.9-4,19.91-4.6,22.8-1.63-.34-3.34,1.17-5,1,.56-2.73,4-21.34,4.56-24.07.16-.74.31-1.49.46-2.23,0-.07,0-.14.05-.21l.09-.44a2.43,2.43,0,0,1,2.05-1.79,2.54,2.54,0,0,1,1,.05h0a2.37,2.37,0,0,1,1.63,1.56A2.72,2.72,0,0,1,101.26,71.17Z"/><path class="cls-1" d="M57,41.61h0Z"/><path class="cls-1" d="M59,43.1l-1.36-1c-.61,2.07-1.18,4.14-1.94,6.16a12.59,12.59,0,0,1-4.52,6.29A17.26,17.26,0,0,1,43.79,57C38.6,57.57,32,57.18,28,53.5a12.44,12.44,0,0,1-3.8-6.32,9.45,9.45,0,0,1,0-4.36,9.87,9.87,0,0,0,1.79.59A51,51,0,0,0,35,44.61c1.21.06,2.42.08,3.62.07a60.61,60.61,0,0,0,12.44-1.43,54.13,54.13,0,0,0,5.82-1.64h0l-2.45-1.82c.77-.24,1.53-.49,2.29-.75a3.85,3.85,0,0,0,2-1.24,2,2,0,0,0,.33-1.29,3,3,0,0,0-1-2.09A7.4,7.4,0,0,0,54.63,33c-2.29-.51-4.59-.93-6.91-1.28-.62-.09-1.24-.18-1.86-.25q-1.48-.2-3-.3a36.44,36.44,0,0,0-5,0,24.69,24.69,0,0,0-5.32.91A18.13,18.13,0,0,0,26.74,35a16.67,16.67,0,0,0-2.23,1.45,2.88,2.88,0,0,0-1.21,1.53,1.62,1.62,0,0,0,0,.69A11.54,11.54,0,0,0,22,41.29c-.08.21-.15.42-.21.64s-.14.53-.19.79a11.77,11.77,0,0,0,.13,5.15,15.1,15.1,0,0,0,9.12,10.24c6.37,2.38,16.92,2.19,22.32-1.93,3.18-2.43,4.66-6.12,5.86-10,.25-.82.49-1.65.74-2.48Zm-31-5.93c.3-.18.61-.34.92-.49a25.65,25.65,0,0,1,8.55-2.17l.95-.09c1.38-.12,2.77-.2,4.16-.28l1,0a2.53,2.53,0,0,0,1.11-.29c.75.07,1.5.17,2.25.28,1.09.15,2.17.34,3.25.53a36.26,36.26,0,0,1,5.38,1.15,4.2,4.2,0,0,1,1.1.69l-.09,0-.71.24c-1.26.43-2.52.82-3.8,1.16l-.86.23A54.15,54.15,0,0,1,34.73,39.6a51.84,51.84,0,0,1-6.1-.75,12,12,0,0,1-2-.44A11,11,0,0,1,27.91,37.17Z"/><path class="cls-1" d="M69.37,36.2a6.45,6.45,0,0,0-3.84-1.26,4.06,4.06,0,0,0-2.78.8c-1.3,1.12-1.84,3-2.31,4.6-.28.95-.9,2.21-.53,3.21S62,45.46,63,45.82a6.16,6.16,0,0,0,6.41-1.75c1.73-1.85,2.35-4.91.87-7A4.7,4.7,0,0,0,69.37,36.2Zm-3.5,7.27a3.09,3.09,0,0,1-3.15-.66l-.1-.08c.15-.49.3-1,.46-1.46.21-.65.43-1.29.68-1.93.14-.39.29-.77.41-1.16,0-.16.1-.31.14-.47a.18.18,0,0,0,0-.06h0s0,.09,0,.14a.81.81,0,0,0,0-.11c0,.06.08.1,0-.06l.08,0,.41-.1a6.67,6.67,0,0,1,1.26,0,2.72,2.72,0,0,1,2.16,1.24,2.58,2.58,0,0,1,.21,2.19,1.15,1.15,0,0,1-.12.25A4.76,4.76,0,0,1,65.87,43.47Z"/><path class="cls-1" d="M64.35,37.68a.81.81,0,0,1,0,.11s0-.11,0-.14Z"/><path class="cls-1" d="M64.35,37.68a.09.09,0,0,0,0,0h0C64.43,37.78,64.38,37.74,64.35,37.68Z"/><path class="cls-1" d="M72.61,36.23a7.15,7.15,0,0,0-3.16-2.92c-2.58-1.2-6.36-1.38-8.55.69a5.38,5.38,0,0,0-1.2-1.48,11.47,11.47,0,0,0-5.32-2.14,84,84,0,0,0-11.27-1.71c-.54,0-1.09-.07-1.63-.09-1.11,0-2.24,0-3.35,0-4.35.27-14.91,3.84-16.91,5.84S19.6,40.3,19.3,41.58A12.44,12.44,0,0,0,19,43.47a15.29,15.29,0,0,0,.39,5.09,17.13,17.13,0,0,0,4.18,7.61c4.63,4.91,11.75,6.25,18.25,5.94,6.69-.32,13.34-2.52,16.87-8.59a30,30,0,0,0,2.49-5.86,8,8,0,0,0,7.56,0,9.28,9.28,0,0,0,4.8-6.44,6.36,6.36,0,0,0,.11-1.07A7.31,7.31,0,0,0,72.61,36.23Zm-6.74,7.24a3.09,3.09,0,0,1-3.15-.66l-.1-.08c.15-.49.3-1,.46-1.46.21-.65.43-1.29.68-1.93.14-.39.29-.77.41-1.16,0-.16.1-.31.14-.47a.18.18,0,0,0,0-.06h0a0,0,0,0,0,0,0,.05.05,0,0,0,0,0h0c0-.05,0-.11.06-.07h0v0l.08,0,.41-.1a6.67,6.67,0,0,1,1.26,0,2.72,2.72,0,0,1,2.16,1.24,2.58,2.58,0,0,1,.21,2.19,1.15,1.15,0,0,1-.12.25A4.76,4.76,0,0,1,65.87,43.47ZM57.6,42.09c-.61,2.07-1.18,4.14-1.94,6.16a12.59,12.59,0,0,1-4.52,6.29A17.26,17.26,0,0,1,43.79,57C38.6,57.57,32,57.18,28,53.5a12.44,12.44,0,0,1-3.8-6.32,9.45,9.45,0,0,1,0-4.36,9.87,9.87,0,0,0,1.79.59A51,51,0,0,0,35,44.61c1.21.06,2.42.08,3.62.07a60.61,60.61,0,0,0,12.44-1.43,54.13,54.13,0,0,0,5.82-1.64s0,0,0,0h0l.28-.09.62-.23a2.76,2.76,0,0,0-.08.27C57.7,41.73,57.65,41.91,57.6,42.09ZM27.91,37.17c.3-.18.61-.34.92-.49a25.65,25.65,0,0,1,8.55-2.17l.95-.09c1.38-.12,2.77-.2,4.16-.28l1,0a2.53,2.53,0,0,0,1.11-.29c.75.07,1.5.17,2.25.28,1.09.15,2.17.34,3.25.53a36.26,36.26,0,0,1,5.38,1.15,4.2,4.2,0,0,1,1.1.69l-.09,0-.71.24c-1.26.43-2.52.82-3.8,1.16l-.86.23A54.15,54.15,0,0,1,34.73,39.6a51.84,51.84,0,0,1-6.1-.75,12,12,0,0,1-2-.44A11,11,0,0,1,27.91,37.17Z"/></g></g></g></svg>