<svg xmlns="http://www.w3.org/2000/svg" viewBox="0 0 231.26 223.92"><defs><style>.cls-1{fill:#231f20;}</style></defs><g id="Layer_2" data-name="Layer 2"><g id="community"><g id="community-2" data-name="community"><path class="cls-1" d="M201.75,67.43q-.27,10.45-.53,20.9-.6,23.55-1.17,47.1-.36,14.67-.7,29.34l2.5-2.5c-5.11.22-9.51,3.77-11.52,8.38-2.38,5.44-1.57,11.49-.33,17.11l3.67-2.83c-5.17-3.49-11.67-6.44-17.75-3.27-5.44,2.84-6.6,9.87-4.35,15.13l2.16-3.76q-42-.81-83.92.89-11.93.48-23.82,1.17l2.16,3.76c1.44-2.48,2.49-5.43,1.09-8.17a10,10,0,0,0-6-4.87,31.83,31.83,0,0,0-9-1.15c-1.41,0-2.82.08-4.22.18-.71,0-1.42.1-2.13.17a9.13,9.13,0,0,0-2,.11c.39-.22.46,1.42.78,1.22a3.14,3.14,0,0,0,.39-.64c.35-.51.75-1,1.1-1.49A17.71,17.71,0,0,0,50,180.78a16.1,16.1,0,0,0,1-7.43,12.91,12.91,0,0,0-8.16-11A11.56,11.56,0,0,0,29,166.2l4.66,1.26c.17-17.1.33-34.2.37-51.3q0-13.51,0-27,0-6.35-.13-12.68c0-3-.34-6.14-.09-9.17a18.47,18.47,0,0,1,.81-4,11.74,11.74,0,0,1,1-2.34c.1-.16.84-1.08.8-1.22,0,.07-.56.61-.27.36.54-.47,1-1,1.57-1.51,2.27-2,4.64-3.93,7-5.84q5.51-4.41,10.63-8.31,6.7-5.13,13.52-10.11c9.24-6.76,18.62-13.38,28.32-19.47C101,12.39,105,10,109,8c.8-.41,1.61-.8,2.43-1.18l1.13-.51.07,0,.59-.23a26.61,26.61,0,0,1,3.6-1.08c.5-.12-.48,0-.22,0s.22,0,.33,0,.43,0,.65,0l.34,0c.54,0-.57-.12-.2,0l.86.16a27.67,27.67,0,0,1,4,1.3l1.18.47.16.07.71.31c.93.41,1.84.84,2.75,1.28,2,1,4,2,5.95,3.05,9.93,5.34,19.5,11.35,28.93,17.51,9,5.89,17.94,12,26.61,18.36l2.46,1.83,1.14.87.54.41c.52.4-.2-.16.21.17,1.19.93,2.38,1.86,3.54,2.84.75.64,1.47,1.29,2.16,2,.09.09.2.29.3.34-.11,0-.34-.64-.25-.32a3.6,3.6,0,0,0,.25.42A17,17,0,0,1,201,61.06a30.4,30.4,0,0,1,.6,4.34,18.67,18.67,0,0,0,.22,2.7c.71,3.13,5.53,1.81,4.82-1.33,0,0,.05.82.06.34,0-.17,0-.35,0-.53,0-.64-.08-1.27-.13-1.91a40.75,40.75,0,0,0-.79-5.28c-.57-2.52-1.42-5.3-3.18-7.27a42.09,42.09,0,0,0-5.66-4.83c-7.92-6.17-16.19-11.9-24.52-17.5-9.81-6.6-19.77-13-30-18.9-4.24-2.45-8.54-4.82-13-6.93A45,45,0,0,0,119.75.24a13.21,13.21,0,0,0-7.67.88,76.54,76.54,0,0,0-10.8,5.38C91.68,12,82.53,18.36,73.51,24.79Q59.65,34.66,46.26,45.15C43.14,47.59,40,50.06,37,52.59a36.72,36.72,0,0,0-4.45,4C28.11,61.76,28.78,69,28.88,75.33c.14,8.78.19,17.55.2,26.32,0,18.15-.1,36.3-.27,54.45,0,3.79-.07,7.57-.11,11.36,0,2.67,3.28,3.15,4.66,1.26,1.84-2.53,5.4-2.69,8.09-1.5,3.28,1.44,4.74,4.84,4.57,8.34a12.13,12.13,0,0,1-1.7,5.49c-1.15,1.93-3.08,3.66-2.4,6.16.76,2.83,3.6,3,6,2.8a64.38,64.38,0,0,1,8-.32,25.49,25.49,0,0,1,4.17.48,8.22,8.22,0,0,1,3.17,1.07,4.18,4.18,0,0,1,1.68,2.13c.15,1-.64,2.16-1.11,3A2.52,2.52,0,0,0,66,200.09q41.91-2.42,83.9-2.32,11.93,0,23.84.26c2.08,0,2.87-2.11,2.16-3.76.15.36,0,0,0-.14s-.17-.57-.24-.86a8.12,8.12,0,0,1-.17-1.1,8.26,8.26,0,0,1,.22-2.67,5.37,5.37,0,0,1,3.19-3.71c4.32-1.72,8.82,1.13,12.28,3.46,1.92,1.3,4.11-.84,3.67-2.82-.94-4.26-1.74-9-.19-13.16,1.1-3,3.88-5.85,7.22-6a2.55,2.55,0,0,0,2.5-2.5Q205,139,205.6,113.2q.48-19.28,1-38.56l.18-7.21C206.83,64.21,201.83,64.21,201.75,67.43Z"/><path class="cls-1" d="M96.75,194.43c-.18-1.71-.43-3.41-.67-5.11-.14-1-.27-1.92-.4-2.88,0-.23-.07-.46-.1-.69s-.15-1.14,0-.4c-.08-.56-.15-1.11-.22-1.67-.67-5.24-1.18-10.5-1.35-15.77-.09-2.92-.08-5.83.08-8.74.08-1.41.19-2.82.35-4.23.09-.83.14-1.23.21-1.65.1-.68.21-1.37.33-2a45.72,45.72,0,0,1,2.18-8l.32-.8c-.2.49.16-.36.22-.49.28-.61.58-1.22.89-1.81a29.81,29.81,0,0,1,2-3.18c.4-.56-.07,0,.3-.39.19-.24.39-.48.59-.71q.64-.74,1.35-1.41c.42-.41.87-.79,1.32-1.16s.05-.05,0,0l.42-.31.86-.59c.54-.35,1.09-.68,1.66-1l.87-.44.4-.18c.66-.31-.46.18.22-.1a25.41,25.41,0,0,1,4-1.22,21.15,21.15,0,0,1,4.18-.54,34.72,34.72,0,0,1,5.1.1,12.34,12.34,0,0,1,1.71.24c.78.15,1.56.33,2.32.55s1.22.39,1.82.61c.12,0,.58.23.12,0l.4.17,1,.47a16.58,16.58,0,0,1,1.63,1l.69.46s.54.4.24.17.18.14.23.19a20.65,20.65,0,0,1,2.66,2.63c.09.11.64.82.3.37l.48.65c.39.57.76,1.15,1.1,1.74s.57,1,.83,1.56c.14.29.28.57.41.86.06.13.12.26.17.39.29.65-.18-.47.08.19a42.49,42.49,0,0,1,2.21,7.82q.18,1,.33,1.95c0,.19.06.38.08.58.07.45-.07-.6,0,.15,0,.39.1.78.14,1.18.16,1.43.28,2.87.36,4.3.59,10.84-.9,21.56-1.3,32.37,0,.92,0,1.85,0,2.78,0,3.21,5,3.22,5,0-.05-4.7.46-9.4.8-14.08.44-5.95.79-11.93.66-17.91-.26-11.14-2-24.37-11.49-31.65-5.11-3.92-11.69-5.17-18-4.84a27,27,0,0,0-16.92,6.49c-8.76,7.85-10.65,20.92-10.86,32.05a136,136,0,0,0,.89,17c.28,2.6.62,5.18,1,7.77.14,1,.28,2,.43,3,.06.47.13.93.19,1.39,0,.18,0,.36.08.55s.12.95.06.44,0,.16,0,.28.05.34.07.51c0,.33.08.66.11,1a2.57,2.57,0,0,0,2.5,2.5,2.51,2.51,0,0,0,2.5-2.5Z"/><path class="cls-1" d="M132.92,167.15c3.22,0,3.22-5,0-5s-3.22,5,0,5Z"/><path class="cls-1" d="M118.25,65.93a2.94,2.94,0,0,1,2,1.06,1.29,1.29,0,0,1-.09-.16c-.2-.35.19.61.11.25,0-.11-.09-.22-.12-.33-.2-.61-.4-1.21-.61-1.81A25.89,25.89,0,0,0,117.36,60c-2.38-4-6.47-6.23-11.12-4.91-5.85,1.66-11.1,6.73-10.21,13.16.71,5.08,4.31,9.41,7.51,13.21a78.2,78.2,0,0,0,6.81,7.17c1.69,1.56,3.71,3.59,6,4.16,1.88.47,3.7-.77,5.16-1.79a56.49,56.49,0,0,0,6.29-5.15,47.8,47.8,0,0,0,6-6.64,35.8,35.8,0,0,0,3.47-6.38c2.12-4.64,4.05-10.69-.06-14.87-3.94-4-10.79-4.67-15.09-1-2.89,2.46-4.32,6.25-5.62,9.7.32-.83-.07.1-.07.11a.67.67,0,0,1-.11.18c-.2-.08,1.38-1,1.25-.94a2.51,2.51,0,0,0-1.75,3.07,2.56,2.56,0,0,0,3.08,1.75c1.53-.29,2.1-2,2.6-3.27.23-.6.47-1.21.71-1.81,0-.11.29-.68,0-.09.07-.18.15-.36.23-.54.2-.43.41-.86.63-1.28a14.52,14.52,0,0,1,1.35-2.14c-.35.45.09-.1.14-.16l.43-.47.46-.43.33-.28c-.23.18-.23.18,0,0a8.12,8.12,0,0,1,1.11-.63c-.53.23.14,0,.22,0s.43-.12.65-.16c.71-.15-.49,0,.26,0,.24,0,.49,0,.73,0,0,0,.83.07.38,0a8.76,8.76,0,0,1,1.11.23,10.2,10.2,0,0,1,2.91,1.31A3.43,3.43,0,0,1,134.54,63c0,.15.07.3.1.46.15.72,0-.48,0,.27a9,9,0,0,1,0,1.47c-.08.8.1-.47-.06.34-.05.26-.1.51-.16.77-.15.61-.34,1.21-.54,1.8a33.31,33.31,0,0,1-6.62,11.27A45.8,45.8,0,0,1,117,87.92c-.58.34.47-.06-.15,0,0,0,1.19.1.57,0,.72.17-.22-.13-.49-.3a10.88,10.88,0,0,1-1.09-.78,58.48,58.48,0,0,1-6.16-5.93c-1-1-1.93-2.12-2.85-3.23-.38-.45-.75-.91-1.12-1.37l-.44-.55c-.1-.13-.19-.26-.29-.38l-.07-.09A28.8,28.8,0,0,1,101.66,70a12.87,12.87,0,0,1-.5-1.48c-.07-.25-.12-.5-.17-.75-.17-.78,0,.46-.06-.33a4.62,4.62,0,0,1,.39-2.81,7.72,7.72,0,0,1,1.5-2,12.86,12.86,0,0,1,3.77-2.4c.26-.11,1-.34,1.48-.46.05,0,.84-.13.28-.06a8.51,8.51,0,0,1,.88,0c.11,0,.8.08.16,0,.26,0,.51.11.77.17s.7.27.12,0a6.88,6.88,0,0,1,.66.35c.16.1.32.2.47.31-.53-.37.11.11.21.21a8.12,8.12,0,0,1,.89,1c-.39-.49,0,0,.07.11s.28.43.41.65c.23.38.44.78.64,1.18.09.17.16.34.25.51.3.64,0-.13.11.26s.3.77.44,1.15c.24.67.46,1.34.68,2,.54,1.62,1.14,3.24,3.14,3.36C121.47,71.11,121.46,66.11,118.25,65.93Z"/><path class="cls-1" d="M64.31,195.47A24.31,24.31,0,0,1,53.41,206a14.73,14.73,0,0,1-6.68,1.46c-1.33,0-2.56-.53-3.88-.56-5.75-.17-11.53-.14-17.29-.21l-6.19-.07,1.26.34c-5-3.82-11.1-8.64-11.09-15.53a13.14,13.14,0,0,1,2.76-7.94,11.69,11.69,0,0,1,3.25-2.86,4.3,4.3,0,0,1,2-.83,2.45,2.45,0,0,1,1.5.94c1.62,1.67,3,3.6,4.5,5.39l5.07,6.17c1.59,1.93,5-.14,4.18-2.43-2-5.87-2.69-12.75-.73-18.73a6.29,6.29,0,0,1,4.23-4.42,7.88,7.88,0,0,1,5.53.68c4.31,2.24,4.94,7.62,3.33,11.85-1,2.5-3.76,4.56-3.37,7.44.56,4.11,5.07,3.35,8,3.13a35.84,35.84,0,0,1,10.94.48,5.69,5.69,0,0,1,3.44,1.83c1,1.13.76,2,.1,3.31-1.44,2.86,2.87,5.4,4.32,2.52a9,9,0,0,0,1.19-5.55A8.06,8.06,0,0,0,67.08,188c-2.76-2.47-6.67-3-10.24-3.22a45.5,45.5,0,0,0-5.6,0c-.78,0-1.57.1-2.35.17-.48,0-1,.08-1.42.12a5.78,5.78,0,0,0-1.51.08c.39-.21.47,1.42.79,1.21s.47-.74.61-.94c.44-.61.89-1.18,1.28-1.83a17.5,17.5,0,0,0,1.83-4.4c1.59-6.06-.35-13.15-6.22-16.13-5.35-2.71-12.07-1.73-15.44,3.51-2.2,3.41-2.7,7.89-2.79,11.87a37.49,37.49,0,0,0,2,12.81l4.18-2.44Q29.1,185,26,181.27c-1.79-2.17-3.53-5-6.26-6-4.9-1.91-10.22,3.08-12.57,6.92a17.61,17.61,0,0,0-2,13.69c1.43,5,5.11,9,9.05,12.33.92.77,1.86,1.51,2.8,2.24a4.14,4.14,0,0,0,2.48,1.21c.55,0,1.12,0,1.68,0l7.94.09,9.06.11c1.65,0,3.39-.11,5,.06.33,0-.93-.22.1.1a11.7,11.7,0,0,0,2,.34,15.5,15.5,0,0,0,3.85,0,21.9,21.9,0,0,0,7.9-2.6A29.21,29.21,0,0,0,68.63,198C70.14,195.15,65.83,192.63,64.31,195.47Z"/><path class="cls-1" d="M224.54,199.64c-2.24,3.33-5.64,4-9.63,4-3.12,0-6.22-.39-9.32-.61l-18.14-1.26-5.92-.41,1.26.34a17.23,17.23,0,0,1-6.24-6c-.18-.33-.35-.68-.51-1-.34-.76,0,.21-.17-.49a13.84,13.84,0,0,1-.4-1.78,7.51,7.51,0,0,1,.56-3.86c1.12-2.46,3.71-3.31,6.26-3.17,3.27.18,6.23,2.15,8.86,3.93,1.92,1.3,4.11-.84,3.67-2.82-1.36-6.18-2.42-15.68,4.89-18.69,2.93-1.21,5.83.19,7.69,2.54,2.41,3.05,3,7.22,3.58,10.93.37,2.24,3.53,2.26,4.57.59.81-1.3,2.63-1.56,4.09-1.15,2.15.6,3.63,2.74,4.61,4.68,2.2,4.35,3,10,.29,14.31-1.72,2.73,2.61,5.24,4.32,2.52,3.89-6.18,2.68-14.71-1.05-20.7-1.83-2.94-4.59-5.39-8.11-5.87a8.43,8.43,0,0,0-8.47,3.69l4.57.6c-1.13-6.87-3.53-15.64-11.46-17.34-7.46-1.6-13.86,4.82-15.15,11.74-.84,4.51-.17,9.05.81,13.48l3.67-2.83c-4-2.68-8.51-5.12-13.47-4.54a10.63,10.63,0,0,0-9.49,8.47,14.48,14.48,0,0,0,3.68,12.32,24.2,24.2,0,0,0,5.22,4.4,4.93,4.93,0,0,0,2.44.79c8.26.57,16.52,1.08,24.78,1.72,4,.31,8,.81,12,.26a13.91,13.91,0,0,0,10-6.19C230.66,199.49,226.33,197,224.54,199.64Z"/><path class="cls-1" d="M15.2,222.67c3.22,0,3.22-5,0-5s-3.22,5,0,5Z"/><path class="cls-1" d="M2.41,212.58c3.22,0,3.23-5,0-5s-3.22,5,0,5Z"/><path class="cls-1" d="M200.92,218.63c3.22,0,3.22-5,0-5s-3.22,5,0,5Z"/><path class="cls-1" d="M215.72,220.65c3.22,0,3.23-5,0-5s-3.22,5,0,5Z"/><path class="cls-1" d="M93.84,207.76c-1,3.11-.93,6.42-1.85,9.54a6.63,6.63,0,0,0-.28,3.58c.5,1.79,2.25,2.54,3.94,2.72,2.72.29,5.51.23,8.24.27,8.82.11,17.65,0,26.47-.16,4.17-.08,8.34-.19,12.51-.38a36.7,36.7,0,0,0,5.35-.35c2.74-.53,5.61-2.55,4.88-5.68a15.24,15.24,0,0,0-2.19-4.26c-.86-1.36-1.77-2.68-2.75-3.95a34.44,34.44,0,0,0-6.4-6.91c-2.77-2.09-6.14-2.25-9.48-2.25-2.85,0-5.69,0-8.54,0-5.61.05-11.2.3-16.8.7-3,.22-6.35.15-9.08,1.69a9.73,9.73,0,0,0-4,5.42,2.5,2.5,0,1,0,4.82,1.33c0-.14.1-.27.16-.41-.27.61.19-.35.27-.5a3.42,3.42,0,0,1,1.55-1.65c1.83-.85,4-.71,6.09-.86,4.53-.33,9.08-.58,13.63-.67,2.24-.05,4.48-.06,6.73-.07a82.64,82.64,0,0,1,8.33.08c2.69.26,4.27,1.82,6,3.75a48.29,48.29,0,0,1,5,6.62,20.84,20.84,0,0,0,1.76,2.9c-.09,0,1.12-.92.31-.78a3.07,3.07,0,0,0-.57.29c-.26.13-.26.12-.46.21a2.67,2.67,0,0,1-.4.13c.31,0,.33-.06,0,0-1.42.13-2.86.17-4.29.23-3.64.16-7.28.27-10.92.35q-12.16.27-24.34.22c-3.24,0-6.49,0-9.73-.17-.51,0-1,0-1.55-.07a2.1,2.1,0,0,0-.36,0h0c-.75-.27-.56.1.58,1.12,0,0,.17-.88.24-1.13.93-3.12.85-6.43,1.85-9.54S94.83,204.71,93.84,207.76Z"/></g></g></g></svg>