<svg xmlns="http://www.w3.org/2000/svg" viewBox="0 0 290.79 302.89"><defs><style>.cls-1{fill:#231f20;}</style></defs><g id="Layer_2" data-name="Layer 2"><g id="park"><g id="park-2" data-name="park"><path class="cls-1" d="M131.84,125.63Q126.42,154,119,182c-.82,3.11,4,4.44,4.82,1.33q7.38-27.94,12.82-56.36a2.57,2.57,0,0,0-1.75-3.08,2.54,2.54,0,0,0-3.08,1.75Z"/><path class="cls-1" d="M141.06,130.91a293.39,293.39,0,0,0,14.69,50.72,2.58,2.58,0,0,0,3.08,1.74,2.51,2.51,0,0,0,1.74-3.07,295.32,295.32,0,0,1-14.69-50.71,2.5,2.5,0,1,0-4.82,1.32Z"/><path class="cls-1" d="M135.53,162.12,136,172a2.5,2.5,0,0,0,5,0l-.47-9.87a2.5,2.5,0,0,0-5,0Z"/><path class="cls-1" d="M119.14,140.71c-13.18-1.28-27.58-3.82-38.08-12.53a35.82,35.82,0,0,1-10.6-14.06,26.42,26.42,0,0,1-1.91-8.44c-.13-2.64-.12-6,1.73-8.07,2.2-2.48,6.41-2.62,9.44-3.1L92.94,92.4a2.52,2.52,0,0,0,1.5-3.67c-4-6-9.6-10.63-14.69-15.72-4.54-4.52-9.22-10.14-9.85-16.79-.31-3.28.69-6.23,3.52-8.07a16.18,16.18,0,0,1,9-2.41c7.29,0,14.18,2.93,21.32,4a6.5,6.5,0,0,0,5.42-1.19,7,7,0,0,0,2.13-4c.64-3.28.39-6.72.83-10,.9-6.79,3.1-13.6,7.27-19.11a26.1,26.1,0,0,1,14.71-9.94,14.54,14.54,0,0,1,9.71.77,15.18,15.18,0,0,1,5.89,5.55c4.2,6.58,5.13,14.94,5,22.59-.16,8.73-1.91,17.32-3.7,25.84-.56,2.67,3.13,4.5,4.57,1.92,4.84-8.64,15.11-15.07,25.24-13.74,4.89.64,8.86,3.53,9.95,8.48s-.75,10.31-3.22,14.66c-3,5.38-7.38,10.2-9.69,16-1.36,3.39.61,6,3.68,7.21,2.92,1.19,6,1.89,9,2.92,4.55,1.56,10,4.79,9.42,10.38-.31,2.91-2,5.58-3.67,7.9a43.1,43.1,0,0,1-5.17,5.87,46.86,46.86,0,0,1-32.43,12.94c-3.22,0-3.23,5,0,5a52,52,0,0,0,33.08-11.86c4.64-3.78,9.21-8.68,11.66-14.21A14.53,14.53,0,0,0,204.5,104a14,14,0,0,0-5.1-7.28,27.9,27.9,0,0,0-8.92-4.34c-1.6-.51-3.21-1-4.8-1.47-1-.31-2.79-.61-3.44-1.41.16.19,0,.45.08.13a4.16,4.16,0,0,1,.41-1q.48-1,1-1.92c.86-1.52,1.79-3,2.75-4.45,1.84-2.79,3.77-5.52,5.41-8.44,3-5.26,4.74-11.2,3.81-17.26A15.45,15.45,0,0,0,184.6,44.1c-6.39-1.9-13.43-.55-19.33,2.27a32.18,32.18,0,0,0-14.08,13.22l4.57,1.92c1.7-8.11,3.35-16.3,3.79-24.6.4-7.73-.25-15.89-3.25-23.1C153.6,7.35,148.66,1.44,141.4.27s-14.65,1.66-20.33,6.21A37.52,37.52,0,0,0,109.3,24.16a56.15,56.15,0,0,0-2.36,11.41c-.21,2-.31,3.91-.38,5.88a6.59,6.59,0,0,1-.6,3.16c-.21.27-.57.3-1.16.24-.86-.09-1.73-.3-2.59-.47-2-.4-3.9-.89-5.85-1.37a75.75,75.75,0,0,0-11.45-2.16c-7.08-.61-16,1.54-19,8.71s1,15.73,5.43,21.5,10.6,10.42,15.55,16a38.88,38.88,0,0,1,3.25,4.2l1.49-3.67-12.73,2c-3.49.56-7.37.9-10.36,3-6.11,4.25-5.67,13.25-3.94,19.66,3.79,14.07,16,23.73,29.21,28.45,8.14,2.91,16.77,4.18,25.35,5a2.52,2.52,0,0,0,2.5-2.5,2.55,2.55,0,0,0-2.5-2.5Z"/><path class="cls-1" d="M94.93,67a29.09,29.09,0,0,1,5,5l-.39-.5q.47.6.9,1.23a2.7,2.7,0,0,0,1.5,1.15,2.58,2.58,0,0,0,1.92-.25,2.51,2.51,0,0,0,.9-3.42,30.94,30.94,0,0,0-6.26-6.76,2.71,2.71,0,0,0-1.77-.73,2.52,2.52,0,0,0-1.76.73,2.5,2.5,0,0,0-.74,1.77A2.42,2.42,0,0,0,94.93,67Z"/><path class="cls-1" d="M132,26.43l-2.25,5.83a2.55,2.55,0,0,0,.25,1.93,2.58,2.58,0,0,0,1.5,1.15,2.52,2.52,0,0,0,1.92-.26,2.8,2.8,0,0,0,1.15-1.49l2.25-5.83a2.52,2.52,0,0,0-1.75-3.08,2.55,2.55,0,0,0-1.93.26A2.83,2.83,0,0,0,132,26.43Z"/><path class="cls-1" d="M124.11,57.11c.81.9,1.6,1.83,2.34,2.79l-.39-.5a43.88,43.88,0,0,1,3,4.41,2.5,2.5,0,0,0,4.32-2.52,48.54,48.54,0,0,0-5.74-7.71,2.5,2.5,0,0,0-3.53,0,2.54,2.54,0,0,0,0,3.53Z"/><path class="cls-1" d="M169.85,64.8l-5.38,4.49a2.49,2.49,0,0,0-.73,1.77,2.51,2.51,0,0,0,2.5,2.5l.66-.09a2.52,2.52,0,0,0,1.1-.65l5.39-4.48a2.5,2.5,0,0,0-1.77-4.27l-.67.09a2.5,2.5,0,0,0-1.1.64Z"/><path class="cls-1" d="M149,84.28l1.8,7.18a2.53,2.53,0,0,0,3.07,1.75,2.56,2.56,0,0,0,1.75-3.08L153.84,83a2.51,2.51,0,0,0-3.07-1.74A2.54,2.54,0,0,0,149,84.28Z"/><path class="cls-1" d="M176.32,116.53l6.73-2.69a2.67,2.67,0,0,0,1.49-1.15,2.49,2.49,0,0,0-.89-3.42,2.47,2.47,0,0,0-1.93-.25L175,111.71a2.75,2.75,0,0,0-1.49,1.15,2.5,2.5,0,0,0,.9,3.42,2.4,2.4,0,0,0,1.92.25Z"/><path class="cls-1" d="M119.67,91.33l-3.59,5.83a2.52,2.52,0,0,0,.89,3.42,2.57,2.57,0,0,0,3.43-.9L124,93.85a2.52,2.52,0,0,0-.89-3.42,2.56,2.56,0,0,0-3.42.9Z"/><path class="cls-1" d="M82.63,109l-1.79,6.73A2.5,2.5,0,1,0,85.66,117l1.79-6.73A2.5,2.5,0,0,0,82.63,109Z"/><path class="cls-1" d="M101.24,119.9l8.57,8.48a2.5,2.5,0,0,0,3.54-3.54l-8.57-8.48a2.5,2.5,0,1,0-3.54,3.54Z"/><path class="cls-1" d="M144.71,110.54a22.55,22.55,0,0,1,3.93,3.94l-.39-.5a20.49,20.49,0,0,1,1.53,2.27,2.56,2.56,0,0,0,1.5,1.14,2.5,2.5,0,0,0,2.82-3.67,24.32,24.32,0,0,0-5.86-6.72,2.76,2.76,0,0,0-1.77-.73,2.51,2.51,0,0,0-2.5,2.5,2.42,2.42,0,0,0,.74,1.77Z"/><path class="cls-1" d="M66.91,157.72c-7.54,7.14-14.87,14.87-19.76,24.12-4.77,9-7.94,20.85-2.06,30.14,5.28,8.33,15.4,11.72,24.76,12.52,11.85,1,23.65-1.8,35.09-4.52,22.88-5.44,46.14-10.41,69.78-10.2,10.68.1,21.59,1.07,31.85,4.19,8.66,2.64,17.2,7.2,22.3,14.93,2.89,4.38,4.75,9.32,7.11,14a41.58,41.58,0,0,0,8.51,11.6A42.19,42.19,0,0,0,270,265.73a37.37,37.37,0,0,0,6.69-.1,2.57,2.57,0,0,0,2.5-2.5,2.51,2.51,0,0,0-2.5-2.5,36.76,36.76,0,0,1-24.84-6.56,34.17,34.17,0,0,1-9-9.15c-2.83-4.29-4.66-9.12-7-13.7a39.29,39.29,0,0,0-8.65-11.71,44.5,44.5,0,0,0-11.42-7.35c-9.19-4.16-19.22-5.91-29.21-6.8-23.06-2.06-46.23,1.59-68.71,6.5-11.22,2.45-22.39,5.78-33.8,7.23-9.64,1.21-20.51,1.21-29-4.13a16.89,16.89,0,0,1-7.5-9.38c-1.43-4.83-.62-10,1-14.69,3.18-9.37,9.6-17.32,16.42-24.32,1.77-1.81,3.58-3.57,5.42-5.31,2.34-2.22-1.2-5.75-3.54-3.54Z"/><path class="cls-1" d="M55.68,149.08c-18.23,13.33-36.22,28.74-47,49a82,82,0,0,0-6.34,15.43C.71,219.05-.48,225,.19,230.84a22.36,22.36,0,0,0,8.5,15.34c5,3.92,10.87,6.6,16.78,8.74,12.66,4.6,26.34,6.21,39.74,6.44,13.75.23,27.46-1.11,41.1-2.68,13.85-1.6,27.68-3.46,41.61-4.22,11.81-.65,23.92-.43,35.32,3a51.87,51.87,0,0,1,15.46,7.58c4.86,3.52,9,7.93,13.16,12.27,8.2,8.63,17,17.8,28.95,20.92a29.79,29.79,0,0,0,8.61,1c3.21-.11,3.22-5.11,0-5-11.58.41-21.25-7.36-28.95-15.16-8.44-8.53-16.21-17.83-27.28-23.08-10.64-5-22.49-6.67-34.17-6.81-12.92-.15-25.85,1.34-38.66,2.83-26.46,3.09-53.74,7.2-80.18,1.8a86.18,86.18,0,0,1-18-5.59c-5-2.22-10.32-4.92-13.72-9.31S4.56,228.44,5.32,223a65,65,0,0,1,4.47-15.69c8.33-20.19,25-36,42-49.07C53.87,156.6,56,155,58.2,153.4a2.58,2.58,0,0,0,.9-3.42,2.52,2.52,0,0,0-3.42-.9Z"/><path class="cls-1" d="M70,149.59c3.22,0,3.22-5,0-5s-3.22,5,0,5Z"/><path class="cls-1" d="M288.37,265c3.22,0,3.22-5,0-5s-3.22,5,0,5Z"/><path class="cls-1" d="M261.6,302.89c3.22,0,3.23-5,0-5s-3.22,5,0,5Z"/><path class="cls-1" d="M100.29,188c3.22,0,3.23-5,0-5s-3.22,5,0,5Z"/><path class="cls-1" d="M110.39,198c3.21,0,3.22-5,0-5s-3.23,5,0,5Z"/><path class="cls-1" d="M96.26,200.73c3.21,0,3.22-5,0-5s-3.23,5,0,5Z"/></g></g></g></svg>