<svg xmlns="http://www.w3.org/2000/svg" viewBox="0 0 281.87 155"><defs><style>.cls-1{fill:#231f20;}</style></defs><g id="Layer_2" data-name="Layer 2"><g id="pond"><g id="pond-2" data-name="pond"><path class="cls-1" d="M100,78.23c16,0,32,1.06,48,2.21q29.11,2.1,58.13,5.26C226,87.85,246.73,89.57,265.15,98c2.32,1.07,4.62,2.22,6.83,3.51,1.69,1,3.65,2.22,4.51,4.07,1.69,3.61-2.31,6.84-5,8.56a97.75,97.75,0,0,1-14.22,7.29A133.16,133.16,0,0,1,241.89,127c-21.64,6.42-44.45,8-66.85,9.6q-35.21,2.5-70.51,2.78c-11.49.08-23,0-34.47-.71-5.66-.37-11.31-.9-16.93-1.71a88.66,88.66,0,0,1-12.39-2.33,34.68,34.68,0,0,1-14.18-7.87,18.81,18.81,0,0,1-6-16.77,24.16,24.16,0,0,1,1.31-5h0l.18-.4c.13-.26.26-.52.4-.78a20,20,0,0,1,1-1.72l.52-.75.28-.36c-.26.33,0,0,0,0,.45-.55.92-1.09,1.41-1.6a32.66,32.66,0,0,1,3.14-2.86c.83-.67,2.25-1.65,3.44-2.41,1.37-.87,2.78-1.67,4.22-2.43a77.42,77.42,0,0,1,9.35-4.09c14.2-5.24,29.47-8,44.54-9,3.18-.21,6.36-.33,9.55-.33s3.22-5,0-5a173,173,0,0,0-45.59,6.32A100.49,100.49,0,0,0,33,87.85c-5.44,3-10.76,6.84-14.11,12.16a24.6,24.6,0,0,0-2.22,20.67C19,127.13,24.1,132.06,30,135.42c6.06,3.47,12.51,4.9,19.34,6a268.13,268.13,0,0,0,35.91,2.88c24.17.51,48.41-.25,72.53-1.59q18.1-1,36.17-2.62a318.64,318.64,0,0,0,34.54-4.63A152,152,0,0,0,261.39,125c4.85-2.19,10-4.49,14.26-7.71,3.75-2.83,7.08-6.93,6-11.94s-6.14-7.76-10.3-9.91a97.12,97.12,0,0,0-15.21-6.22c-10.34-3.29-21.1-5-31.84-6.43-19.9-2.54-39.91-4.41-59.9-6.08-18.1-1.5-36.24-2.82-54.39-3.33-3.34-.1-6.69-.16-10-.16S96.79,78.23,100,78.23Z"/><path class="cls-1" d="M101.52,70.63a63.82,63.82,0,0,1-.77-27.91c1.46-7.18,4.33-14.36,9.2-19.93a28.38,28.38,0,0,1,9.82-7.35L116.35,12c-7,15.42-10.8,31.94-13.71,48.56-.82,4.68-1.57,9.36-2.33,14a2.59,2.59,0,0,0,1.75,3.08A2.52,2.52,0,0,0,105.13,76c2.63-16.29,5.27-32.68,10.47-48.39a132,132,0,0,1,5.07-13,2.52,2.52,0,0,0-3.42-3.42C101,18.42,94.7,38,94.58,54.48A70.53,70.53,0,0,0,96.7,72c.77,3.12,5.6,1.8,4.82-1.33Z"/><path class="cls-1" d="M38.41,83.19q-8.35-9.56-17.17-18.7Q16.91,60,12.48,55.63C9.86,53,7,50,3.18,49.46A2.55,2.55,0,0,0,0,51.87a32.29,32.29,0,0,0,6.87,20.3c4.45,5.86,10.77,11.29,18,13.33,3.82,1.09,8.24,1.3,11.39,4a2.58,2.58,0,0,0,3.54,0,2.53,2.53,0,0,0,0-3.54c-2.92-2.5-6.34-3.6-10-4.42a42.2,42.2,0,0,1-5.27-1.4,22.94,22.94,0,0,1-4.54-2.46A34.74,34.74,0,0,1,7.09,62.75,25.46,25.46,0,0,1,5,51.87L1.85,54.28c3.34.45,5.69,3.49,7.94,5.73,2.9,2.87,5.75,5.77,8.58,8.71q8.46,8.81,16.51,18a2.51,2.51,0,0,0,3.53,0,2.55,2.55,0,0,0,0-3.54Z"/><path class="cls-1" d="M189.23,107.91a39.49,39.49,0,0,0-15.08,5.48,2.53,2.53,0,0,0,0,4.32c2,1.21,4.26.92,6.4.26s4.28-1.45,6.39-2.22c4.26-1.55,8.49-3.2,12.77-4.7,8.35-2.92,17-5.28,25.89-4.87,3.22.15,3.21-4.85,0-5-8.73-.4-17.3,1.68-25.51,4.46-4.15,1.41-8.24,3-12.35,4.51-2,.73-4,1.46-6,2.14-1,.34-1.95.68-2.93,1-.7.21-1.52.53-2.18.13v4.32a36.06,36.06,0,0,1,13.89-5,2.5,2.5,0,0,0-1.33-4.82Z"/><path class="cls-1" d="M56.17,116.14a28.66,28.66,0,0,1,13.07-8.66,28.33,28.33,0,0,1,7.58-1.34,25.5,25.5,0,0,1,4.19.15,4.28,4.28,0,0,1,1.37.32l.31.15.22.2a.85.85,0,0,1-.2-.86l2.41-1.84Q75.8,104.1,66.54,103a2.51,2.51,0,0,0-2.5,2.5,2.56,2.56,0,0,0,2.5,2.5q9.25,1.07,18.58,1.24a2.51,2.51,0,0,0,2.41-1.84c1.35-8.32-12.83-6.46-17.41-5.37A33.46,33.46,0,0,0,52.63,112.6a2.57,2.57,0,0,0,0,3.54,2.53,2.53,0,0,0,3.54,0Z"/><path class="cls-1" d="M239.54,85A121.14,121.14,0,0,1,247,34.43a116.07,116.07,0,0,1,5.95-13.22c1.49-2.85-2.82-5.38-4.32-2.53a125.93,125.93,0,0,0-14.15,51.16A121.58,121.58,0,0,0,234.54,85a2.56,2.56,0,0,0,2.5,2.5,2.53,2.53,0,0,0,2.5-2.5Z"/><path class="cls-1" d="M251.35,16.8l-1-12.41-4.91.66a41,41,0,0,1,2.54,14.45,2.5,2.5,0,0,0,1.53,2.29,2.59,2.59,0,0,0,2.73-.52L265.09,11l-3.54-3.54-6.49,5.39-3.25,2.69c-1.25,1-2.27,2.14-2.11,3.89.28,3,3.72,3.71,6.06,4.46l8.31,2.65a2.5,2.5,0,1,0,1.32-4.82l-6.64-2.12-3.32-1.06c-.28-.09-.57-.17-.85-.27s.36.28-.22-.11c-.26-.18-.09-.15-.08-.05l.31.54q-.74,1.81-.15,1.2A25.36,25.36,0,0,0,257,17.7l2.66-2.2L265.09,11a2.53,2.53,0,0,0,0-3.54,2.56,2.56,0,0,0-3.54,0L248.67,17.74l4.27,1.76a45,45,0,0,0-2.72-15.78,2.52,2.52,0,0,0-2.74-1.79,2.48,2.48,0,0,0-2.17,2.46l1,12.41a2.56,2.56,0,0,0,2.5,2.5,2.53,2.53,0,0,0,2.5-2.5Z"/><path class="cls-1" d="M240.54,148.51c3.21,0,3.22-5,0-5s-3.23,5,0,5Z"/><path class="cls-1" d="M39.89,155c3.21,0,3.22-5,0-5s-3.23,5,0,5Z"/><path class="cls-1" d="M262,136.17c3.22,0,3.23-5,0-5s-3.22,5,0,5Z"/><path class="cls-1" d="M256.77,150.45c3.22,0,3.22-5,0-5s-3.22,5,0,5Z"/><path class="cls-1" d="M22.35,145.91c3.22,0,3.23-5,0-5s-3.22,5,0,5Z"/><path class="cls-1" d="M271.06,5c3.21,0,3.22-5,0-5s-3.23,5,0,5Z"/></g></g></g></svg>