<svg xmlns="http://www.w3.org/2000/svg" viewBox="0 0 177.35 250.03"><defs><style>.cls-1{fill:#231f20;}</style></defs><g id="Layer_2" data-name="Layer 2"><g id="theatre"><g id="theatre-2" data-name="theatre"><path class="cls-1" d="M.34,133c-.39,26.07,1,52.1,2.17,78.14.33,7.28.62,14.57.83,21.86a2.6,2.6,0,0,0,1.84,2.41,161.06,161.06,0,0,0,16.08,4.9,297.81,297.81,0,0,0,42.6,7.84,275.93,275.93,0,0,0,56.74.79,196.61,196.61,0,0,0,39.49-7.55c3.61-1.12,7.18-2.36,10.68-3.81a46.45,46.45,0,0,0,5.14-2.32l.2-.1a2.49,2.49,0,0,0,1.23-2.16c-.26-12.9-.5-25.8-.6-38.7q-.15-20.17.12-40.34.18-14.47.48-29c.07-3.22-4.93-3.22-5,0-.32,15.87-.57,31.75-.64,47.62q-.07,18.93.23,37.86.18,11.26.41,22.52l1.24-2.16c-1,.54-2,1-3.06,1.45l-.82.36c-.48.2.22-.09.09,0l-.54.22c-.69.29-1.38.56-2.08.83-1.77.69-3.55,1.32-5.35,1.92a179.34,179.34,0,0,1-35.77,7.77,267.48,267.48,0,0,1-55.65.47,293.52,293.52,0,0,1-44.27-7.43c-4.47-1.11-8.92-2.32-13.32-3.69-2-.63-4-1.41-6-2a2,2,0,0,1-.26-.09L8.34,233c-.76-25.76-2.52-51.49-3-77.26q-.19-11.37,0-22.74c0-3.22-4.95-3.22-5,0Z"/><path class="cls-1" d="M89.36,31.78l18.41-10.43a2.53,2.53,0,0,0,0-4.32A83.29,83.29,0,0,1,88.86.77C87.36-1,84.68.52,84.59,2.53q-1,22.46-1.11,44.92c0,3.22,5,3.22,5,0Q88.59,25,89.59,2.53L85.32,4.3a87.89,87.89,0,0,0,19.93,17.05V17L86.84,27.46c-2.8,1.59-.29,5.91,2.52,4.32Z"/><path class="cls-1" d="M87.43,154.32C83.19,170,73.76,184,62.39,195.37a115.37,115.37,0,0,1-18.62,15.24c-1.64,1.08-3.81,2-4.71,3.84-1.18,2.42.71,4.54,2.33,6.16,3,3,6.67,5.07,10.34,7.06a88.26,88.26,0,0,1,12.05,7.52,71.46,71.46,0,0,1,10.6,10.12,2.52,2.52,0,0,0,4.18-1.11c5.16-22.86,10.32-45.81,12.57-69.18.64-6.62,1-13.26,1.13-19.9,0-3.22-5-3.22-5,0-.34,23.11-4.39,45.93-9.24,68.47-1.38,6.44-2.83,12.86-4.28,19.28l4.17-1.1a74.7,74.7,0,0,0-17.34-14.85c-3-1.89-6.25-3.46-9.35-5.26a39.71,39.71,0,0,1-4.2-2.73,21.81,21.81,0,0,1-2.1-1.86c-.28-.28-.56-.57-.83-.87s-.35-.41-.52-.61c.1.25.11.17,0-.23v1.33s.36-.26.58-.4l1.64-1c1.1-.71,2.19-1.44,3.26-2.19,2.14-1.49,4.22-3.06,6.26-4.67a121.12,121.12,0,0,0,11.76-10.65A109,109,0,0,0,85.86,172a83.72,83.72,0,0,0,6.4-16.31c.84-3.11-4-4.43-4.83-1.33Z"/><path class="cls-1" d="M87.76,155.65C93.28,176,107,193.88,123.13,207.12c2.33,1.91,4.72,3.75,7.18,5.49,1.12.79,2.26,1.57,3.41,2.32.6.39,1.2.78,1.81,1.15a3.66,3.66,0,0,0,.66.41c.64.25.24.18.24.2v-1.33c-.09.4-.08.48,0,.23l-.53.61c-.27.3-.54.59-.83.87a22.81,22.81,0,0,1-1.94,1.73,36.64,36.64,0,0,1-4.35,2.86c-3.1,1.8-6.32,3.37-9.36,5.26a75.11,75.11,0,0,0-17.34,14.85l4.18,1.1c-5.08-22.5-10.22-45.09-12.42-68.09q-.94-9.81-1.11-19.66c0-3.22-5-3.23-5,0,.35,23.46,4.45,46.67,9.37,69.56,1.4,6.52,2.87,13,4.34,19.52a2.52,2.52,0,0,0,4.18,1.11,71.52,71.52,0,0,1,20-16.18,78.15,78.15,0,0,0,10.78-6.54,18.3,18.3,0,0,0,4.34-4.44c1.48-2.38.07-4.64-2-6-13.69-8.8-25.8-19.91-34.82-33.53a84.07,84.07,0,0,1-11.31-24.33c-.84-3.1-5.66-1.78-4.82,1.33Z"/><path class="cls-1" d="M170.69,118.25a10.36,10.36,0,0,1,1.43,7.79,8.15,8.15,0,0,1-1.53,3.51,5.91,5.91,0,0,1-2.32,1.74c-3,1.05-6.73,1-9.84.78a14.49,14.49,0,0,1-4.41-1,5.68,5.68,0,0,1-2.63-2.13c-1.07-1.74-4.09-1.57-4.57.6-1.41,6.42-7.91,10.5-14.26,10.54-7.4,0-14.12-4.83-18.37-10.57a2.54,2.54,0,0,0-4.32,0,23.14,23.14,0,0,1-18,9.92,23.44,23.44,0,0,1-19.08-9.07,2.52,2.52,0,0,0-3.93.51,16,16,0,0,1-13.5,9.64,15.94,15.94,0,0,1-14.66-8.36,2.53,2.53,0,0,0-4.32,0,6.31,6.31,0,0,1-.74,1,19.27,19.27,0,0,1-1.54,1.59,23.38,23.38,0,0,1-3.58,2.76,22.56,22.56,0,0,1-9.68,3.57c-6.29.61-12.62-2-15-7.81.14.33-.13-.39-.16-.48-.1-.28-.18-.56-.26-.84s-.15-.56-.21-.84c0-.13-.17-1.1-.12-.64A12.55,12.55,0,0,1,5,128.83c0-.26,0-.52,0-.78,0-.08.06-.54,0-.21s.06-.29.06-.3a11.2,11.2,0,0,1,.39-1.37c.14-.41-.22.32.09-.2.08-.13.4-.64.26-.47s.38-.33.48-.42l.62-.6,1.47-1.42c4.08-4,8.11-8,12.13-12,9.2-9.19,18.34-18.43,27.59-27.57C56.27,75.45,64.45,67.4,73,59.82,74.65,58.39,76.28,57,78,55.63l1-.84.5-.39.28-.22c-.12.1-.34.27-.09.08.63-.48,1.27-1,1.92-1.42A28.73,28.73,0,0,1,84.69,51c.58-.3-.56.15,0,0a4.68,4.68,0,0,0,.53-.17c.58-.22-.67,0-.14,0s-.21,0-.31-.07a3.09,3.09,0,0,0,.78.23c.64.2-.35-.18-.09,0l.54.25a29.94,29.94,0,0,1,2.65,1.49c2.55,1.56,5,3.29,7.41,5,3.25,2.35,6.44,4.77,9.61,7.21l.27.2c.3.24-.29-.22,0,0l.63.49,1.44,1.12,2.67,2.09c1.92,1.51,3.82,3,5.72,4.54q11.78,9.41,23.34,19.05,10.09,8.37,20.09,16.85,5.35,4.53,10.69,9.09l.49.42a2.56,2.56,0,0,0,3.53,0,2.53,2.53,0,0,0,0-3.54q-4-3.41-7.94-6.77-9.55-8.11-19.18-16.14-12-10-24.06-19.75c-7.37-5.93-14.79-11.82-22.4-17.44-2.72-2-5.46-4-8.3-5.83a28.39,28.39,0,0,0-5.83-3.17c-2.06-.74-4,0-5.8,1.09a60.56,60.56,0,0,0-8.4,6.3c-8.59,7.25-16.63,15.17-24.64,23.05C38.45,86,29,95.58,19.44,105.11c-4.24,4.24-8.48,8.47-12.77,12.66-1,1-1.93,1.89-2.9,2.82a11.55,11.55,0,0,0-2.55,2.94A12.88,12.88,0,0,0,.14,131a17.34,17.34,0,0,0,11.38,13.84c7.56,2.87,16.23.71,22.67-3.81a24.54,24.54,0,0,0,6.52-6.37H36.39a20.93,20.93,0,0,0,19,10.84A20.94,20.94,0,0,0,73.19,133.4l-3.93.51a27.75,27.75,0,0,0,36.58,6.22,28.49,28.49,0,0,0,8.35-8.09h-4.32c4.26,5.76,10.12,10.62,17.2,12.36A21.35,21.35,0,0,0,146,140.06a17,17,0,0,0,5.64-9.18l-4.57.6c3.56,5.78,11.67,6.12,17.7,5.46,3.21-.35,6.24-.84,8.68-3.14a13.2,13.2,0,0,0,3.74-7.91A15.17,15.17,0,0,0,175,115.73C173.26,113,168.93,115.54,170.69,118.25Z"/><path class="cls-1" d="M83.69,47.73a340.53,340.53,0,0,0-20.51,31.9q-10.11,17.48-19,35.65c-3,6.08-5.83,12.23-8.51,18.45a2.58,2.58,0,0,0,.89,3.42,2.52,2.52,0,0,0,3.42-.9c5-11.62,10.61-23,16.51-34.2,6.27-11.9,12.92-23.63,20.1-35C80.23,61.33,84,55.7,88,50.25a2.52,2.52,0,0,0-.89-3.42,2.56,2.56,0,0,0-3.42.9Z"/><path class="cls-1" d="M83.43,48.32c-5,22-9.68,44.09-12.52,66.45-.72,5.72-1.31,11.46-1.57,17.22-.14,3.22,4.86,3.21,5,0A268.15,268.15,0,0,1,78,100.52c1.88-11.43,4.13-22.8,6.54-34.12q1.8-8.39,3.7-16.75c.71-3.13-4.11-4.47-4.83-1.33Z"/><path class="cls-1" d="M83.43,49.65c8.3,21.13,11.84,43.74,19.15,65.18a145.56,145.56,0,0,0,7.11,17.42,2.5,2.5,0,1,0,4.31-2.52c-9.85-20-13.67-42.41-19.83-63.71-1.73-6-3.64-11.9-5.91-17.7a2.58,2.58,0,0,0-3.08-1.74,2.52,2.52,0,0,0-1.75,3.07Z"/><path class="cls-1" d="M84.08,50.76c17.71,20.17,32.68,42.61,49.15,63.77,4.37,5.61,8.83,11.14,13.52,16.49a2.5,2.5,0,0,0,3.53-3.54c-17.71-20.18-32.68-42.61-49.15-63.77C96.76,58.1,92.3,52.56,87.61,47.22a2.5,2.5,0,1,0-3.53,3.54Z"/></g></g></g></svg>